<?xml version="1.0" encoding="UTF-8" standalone="no"?>
<svg
   xmlns:dc="http://purl.org/dc/elements/1.1/"
   xmlns:cc="http://creativecommons.org/ns#"
   xmlns:rdf="http://www.w3.org/1999/02/22-rdf-syntax-ns#"
   xmlns:svg="http://www.w3.org/2000/svg"
   xmlns="http://www.w3.org/2000/svg"
   xmlns:sodipodi="http://sodipodi.sourceforge.net/DTD/sodipodi-0.dtd"
   xmlns:inkscape="http://www.inkscape.org/namespaces/inkscape"
   width="100mm"
   height="100mm"
   viewBox="0 0 100 100"
   version="1.1"
   id="svg8"
   inkscape:version="1.0.2-2 (e86c870879, 2021-01-15)"
   sodipodi:docname="icon.svg">
  <defs
     id="defs2" />
  <sodipodi:namedview
     id="base"
     pagecolor="#ffffff"
     bordercolor="#666666"
     borderopacity="1.0"
     inkscape:pageopacity="0.0"
     inkscape:pageshadow="2"
     inkscape:zoom="1.2197399"
     inkscape:cx="211.76812"
     inkscape:cy="171.02183"
     inkscape:document-units="mm"
     inkscape:current-layer="layer1"
     inkscape:document-rotation="0"
     showgrid="true"
     inkscape:pagecheckerboard="false"
     inkscape:snap-page="true"
     inkscape:snap-bbox="true"
     inkscape:snap-bbox-edge-midpoints="false"
     inkscape:bbox-nodes="true"
     inkscape:window-width="1920"
     inkscape:window-height="1137"
     inkscape:window-x="-8"
     inkscape:window-y="-8"
     inkscape:window-maximized="1" />
  <metadata
     id="metadata5">
    <rdf:RDF>
      <cc:Work
         rdf:about="">
        <dc:format>image/svg+xml</dc:format>
        <dc:type
           rdf:resource="http://purl.org/dc/dcmitype/StillImage" />
        <dc:title></dc:title>
      </cc:Work>
    </rdf:RDF>
  </metadata>
  <g
     inkscape:label="Layer 1"
     inkscape:groupmode="layer"
     id="layer1">
    <path
       id="path865"
       style="fill:#0051ff;fill-opacity:1;fill-rule:evenodd;stroke:none;stroke-width:7.25312;stroke-linejoin:round;stroke-miterlimit:4;stroke-dasharray:58.025, 7.25312000000000001;stroke-dashoffset:21.7591;stroke-opacity:1;paint-order:markers stroke fill"
       d="m 58.6875,160.63086 c -12.563149,0 -22.677734,10.11458 -22.677734,22.67773 v 135.98829 c 0,12.56314 10.114585,22.67773 22.677734,22.67773 h 135.95703 c 12.56315,1e-5 22.67774,-10.11459 22.67774,-22.67773 V 183.30859 c 0,-12.56315 -10.11459,-22.67773 -22.67774,-22.67773 z m 22.537109,30.14648 h 90.882811 c 8.34958,0 15.07227,6.72268 15.07227,15.07227 v 90.9043 c 0,8.34958 -6.72269,15.07226 -15.07227,15.07226 H 81.224609 c -8.34958,0 -15.072265,-6.72268 -15.072265,-15.07226 v -90.9043 c 0,-8.34959 6.722685,-15.07227 15.072265,-15.07227 z"
       transform="matrix(0.27576697,0,0,0.27571946,27.569696,-31.789055)" />
    <path
       id="rect830"
       style="fill:#ff5e00;fill-opacity:1;fill-rule:evenodd;stroke:none;stroke-width:7.25312;stroke-linejoin:round;stroke-miterlimit:4;stroke-dasharray:58.025, 7.25312000000000001;stroke-dashoffset:21.7591;stroke-opacity:1;paint-order:markers stroke fill"
       d="m 58.6875,160.63086 c -12.563149,0 -22.677734,10.11458 -22.677734,22.67773 v 135.98829 c 0,12.56314 10.114585,22.67773 22.677734,22.67773 h 135.95703 c 12.56315,1e-5 22.67774,-10.11459 22.67774,-22.67773 V 183.30859 c 0,-12.56315 -10.11459,-22.67773 -22.67774,-22.67773 z m 22.537109,30.14648 h 90.882811 c 8.34958,0 15.07227,6.72268 15.07227,15.07227 v 90.9043 c 0,8.34958 -6.72269,15.07226 -15.07227,15.07226 H 81.224609 c -8.34958,0 -15.072265,-6.72268 -15.072265,-15.07226 v -90.9043 c 0,-8.34959 6.722685,-15.07227 15.072265,-15.07227 z"
       transform="matrix(0.27576697,0,0,0.27571946,2.569696,-6.7890537)" />
  </g>
</svg>
